<svg width="14" height="16" viewBox="0 0 14 16" fill="none" xmlns="http://www.w3.org/2000/svg">
<g clip-path="url(#clip0_165_697)">
<path d="M6.89847 3.85313C6.92972 3.86876 6.95472 3.90626 6.99222 3.90626C7.0266 3.90626 7.07972 3.89376 7.08285 3.85938C7.0891 3.81563 7.02347 3.78751 6.98285 3.76876C6.92972 3.74688 6.86097 3.73751 6.81097 3.76563C6.79847 3.77188 6.78597 3.78751 6.79222 3.80001C6.8016 3.84063 6.8641 3.83438 6.89847 3.85313ZM6.2141 3.90626C6.2516 3.90626 6.2766 3.86876 6.30785 3.85313C6.34222 3.83438 6.40472 3.84063 6.41722 3.80313C6.42347 3.79063 6.41097 3.77501 6.39847 3.76876C6.34847 3.74063 6.27972 3.75001 6.2266 3.77188C6.18597 3.79063 6.12035 3.81876 6.1266 3.86251C6.12972 3.89376 6.18285 3.90938 6.2141 3.90626ZM13.1235 12.6188C13.011 12.4938 12.9578 12.2563 12.8985 12.0031C12.8422 11.75 12.7766 11.4781 12.5703 11.3031C12.5297 11.2688 12.4891 11.2375 12.4453 11.2125C12.4047 11.1875 12.361 11.1656 12.3172 11.15C12.6047 10.2969 12.4922 9.44688 12.2016 8.67813C11.8453 7.73751 11.2235 6.91563 10.7485 6.35313C10.2141 5.68126 9.69535 5.04376 9.70472 4.10313C9.72035 2.66876 9.8641 0.00313404 7.33597 9.0367e-06C4.13597 -0.00624096 4.93597 3.23126 4.9016 4.22501C4.84847 4.95626 4.7016 5.53126 4.19847 6.24688C3.60785 6.95001 2.7766 8.08438 2.38285 9.26876C2.19535 9.82813 2.10785 10.3969 2.1891 10.9344C1.98597 11.1156 1.83285 11.3938 1.67035 11.5656C1.5391 11.7 1.34847 11.75 1.1391 11.825C0.929723 11.9 0.701598 12.0125 0.560973 12.2781C0.495348 12.4 0.473473 12.5313 0.473473 12.6656C0.473473 12.7875 0.492223 12.9125 0.510973 13.0344C0.548473 13.2875 0.589098 13.525 0.535973 13.6844C0.373473 14.1344 0.351598 14.4469 0.467223 14.675C0.585973 14.9031 0.823473 15.0031 1.09535 15.0594C1.63597 15.1719 2.37035 15.1438 2.94847 15.45C3.56722 15.775 4.19535 15.8906 4.69535 15.775C5.05785 15.6938 5.35472 15.475 5.50472 15.1438C5.89535 15.1406 6.3266 14.975 7.0141 14.9375C7.47972 14.9 8.0641 15.1031 8.73597 15.0656C8.75472 15.1375 8.77972 15.2094 8.8141 15.275V15.2781C9.07347 15.8 9.55785 16.0375 10.0735 15.9969C10.5922 15.9563 11.1391 15.6531 11.5828 15.125C12.0078 14.6125 12.7078 14.4 13.1735 14.1188C13.4047 13.9781 13.5922 13.8031 13.6078 13.5469C13.6203 13.2906 13.4703 13.0063 13.1235 12.6188ZM6.9891 2.72813C7.29535 2.03438 8.05785 2.04688 8.3641 2.71563C8.56722 3.15938 8.4766 3.68126 8.22972 3.97813C8.17972 3.95313 8.04535 3.89688 7.83597 3.82501C7.87035 3.78751 7.93285 3.74063 7.95785 3.68126C8.10785 3.31251 7.9516 2.83751 7.67347 2.82813C7.44535 2.81251 7.2391 3.16563 7.30472 3.54688C7.1766 3.48438 7.01097 3.43751 6.89847 3.40938C6.86722 3.19376 6.8891 2.95313 6.9891 2.72813ZM5.71722 2.36876C6.03285 2.36876 6.36722 2.81251 6.3141 3.41563C6.20472 3.44688 6.09222 3.49376 5.99535 3.55938C6.03285 3.28126 5.89222 2.93126 5.69535 2.94688C5.43285 2.96876 5.3891 3.60938 5.6391 3.82501C5.67035 3.85001 5.69847 3.81876 5.45472 3.99688C4.96722 3.54063 5.1266 2.36876 5.71722 2.36876ZM5.29222 4.26563C5.48597 4.12188 5.71722 3.95313 5.73285 3.93751C5.87972 3.80001 6.15472 3.49376 6.60472 3.49376C6.8266 3.49376 7.09222 3.56563 7.4141 3.77188C7.61097 3.90001 7.76722 3.90938 8.12035 4.06251C8.38285 4.17188 8.54847 4.36563 8.44847 4.63126C8.36722 4.85313 8.10472 5.08126 7.7391 5.19688C7.39222 5.30938 7.12035 5.69688 6.54535 5.66251C6.42347 5.65626 6.3266 5.63126 6.24535 5.59688C5.99535 5.48751 5.8641 5.27188 5.62035 5.12813C5.3516 4.97813 5.20785 4.80313 5.16097 4.65001C5.11722 4.49688 5.16097 4.36876 5.29222 4.26563ZM5.39535 14.7031C5.31097 15.8 4.02347 15.7781 3.04222 15.2656C2.10785 14.7719 0.898473 15.0625 0.651598 14.5813C0.576598 14.4344 0.576598 14.1844 0.732848 13.7563V13.75C0.807848 13.5125 0.751598 13.25 0.714098 13.0031C0.676598 12.7594 0.657848 12.5344 0.742223 12.3781C0.851598 12.1688 1.00785 12.0938 1.20472 12.025C1.5266 11.9094 1.57347 11.9188 1.81722 11.7156C1.9891 11.5375 2.1141 11.3125 2.2641 11.1531C2.42347 10.9813 2.5766 10.9 2.81722 10.9375C3.07035 10.975 3.2891 11.15 3.5016 11.4375L4.1141 12.55C4.41097 13.1719 5.46097 14.0625 5.39535 14.7031ZM5.3516 13.8938C5.22347 13.6875 5.0516 13.4688 4.9016 13.2813C5.12347 13.2813 5.34535 13.2125 5.42347 13.0031C5.49535 12.8094 5.42347 12.5375 5.19222 12.225C4.77035 11.6563 3.99535 11.2094 3.99535 11.2094C3.57347 10.9469 3.33597 10.625 3.2266 10.275C3.11722 9.92501 3.13285 9.54688 3.21722 9.17501C3.37972 8.45938 3.79847 7.76251 4.06722 7.32501C4.1391 7.27188 4.09222 7.42501 3.79535 7.97501C3.52972 8.47813 3.03285 9.64063 3.7141 10.55C3.73285 9.90313 3.88597 9.24376 4.14535 8.62813C4.52035 7.77188 5.31097 6.28751 5.37347 5.10626C5.40785 5.13126 5.51722 5.20626 5.56722 5.23438C5.71097 5.31876 5.82035 5.44376 5.96097 5.55626C6.34847 5.86876 6.8516 5.84376 7.28597 5.59376C7.47972 5.48438 7.63597 5.35938 7.78285 5.31251C8.09222 5.21563 8.3391 5.04376 8.47972 4.84376C8.72035 5.79376 9.28285 7.16563 9.64222 7.83438C9.83285 8.19063 10.2141 8.94376 10.3797 9.85313C10.4828 9.85001 10.5985 9.86563 10.7203 9.89688C11.1516 8.78126 10.3547 7.57813 9.99222 7.24376C9.84535 7.10001 9.8391 7.03751 9.91097 7.04063C10.3047 7.39063 10.8235 8.09376 11.011 8.88438C11.0985 9.24688 11.1141 9.62501 11.0235 10C11.536 10.2125 12.1453 10.5594 11.9828 11.0875C11.9141 11.0844 11.8828 11.0875 11.8516 11.0875C11.9516 10.7719 11.7297 10.5375 11.1391 10.2719C10.5266 10.0031 10.0141 10.0031 9.94222 10.6625C9.5641 10.7938 9.37035 11.1219 9.27347 11.5156C9.18597 11.8656 9.16097 12.2875 9.13597 12.7625C9.12035 13.0031 9.02347 13.325 8.92347 13.6688C7.92035 14.3844 6.5266 14.6969 5.3516 13.8938ZM13.3953 13.5344C13.3672 14.0594 12.1078 14.1563 11.4203 14.9875C11.0078 15.4781 10.5016 15.75 10.0578 15.7844C9.6141 15.8188 9.22972 15.6344 9.00472 15.1813C8.85785 14.8344 8.92972 14.4594 9.0391 14.0469C9.15472 13.6031 9.3266 13.1469 9.34847 12.7781C9.37347 12.3031 9.4016 11.8875 9.47972 11.5688C9.56097 11.2469 9.68597 11.0313 9.90785 10.9094C9.91722 10.9031 9.92972 10.9 9.9391 10.8938C9.9641 11.3063 10.1672 11.725 10.5266 11.8156C10.9203 11.9188 11.486 11.5813 11.7266 11.3063C12.0078 11.2969 12.2172 11.2781 12.4328 11.4656C12.7422 11.7313 12.6547 12.4125 12.9672 12.7656C13.2985 13.1281 13.4047 13.375 13.3953 13.5344ZM5.4141 4.64688C5.4766 4.70626 5.56097 4.78751 5.6641 4.86876C5.87035 5.03126 6.15785 5.20001 6.51722 5.20001C6.87972 5.20001 7.22035 5.01563 7.51097 4.86251C7.6641 4.78126 7.8516 4.64376 7.97347 4.53751C8.09535 4.43126 8.15785 4.34063 8.07035 4.33126C7.98285 4.32188 7.9891 4.41251 7.88285 4.49063C7.74535 4.59063 7.57972 4.72188 7.44847 4.79688C7.21722 4.92813 6.8391 5.11563 6.5141 5.11563C6.1891 5.11563 5.92972 4.96563 5.73597 4.81251C5.6391 4.73438 5.55785 4.65626 5.49535 4.59688C5.44847 4.55313 5.43597 4.45313 5.36097 4.44376C5.31722 4.44063 5.30472 4.55938 5.4141 4.64688Z" fill="white"/>
</g>
<defs>
<clipPath id="clip0_165_697">
<rect width="14" height="16" fill="white"/>
</clipPath>
</defs>
</svg>

