<svg width="20" height="24" viewBox="0 0 20 24" fill="none" xmlns="http://www.w3.org/2000/svg">
<g clip-path="url(#clip0_178_162)">
<path d="M9.99914 0C9.20897 0 8.57057 0.670312 8.57057 1.5V2.4C5.31164 3.09375 2.85629 6.12187 2.85629 9.75V10.6313C2.85629 12.8344 2.08397 14.9625 0.69111 16.6125L0.360753 17.0016C-0.0142474 17.4422 -0.103533 18.075 0.124145 18.6141C0.351824 19.1531 0.865217 19.5 1.42772 19.5H18.5706C19.1331 19.5 19.642 19.1531 19.8741 18.6141C20.1063 18.075 20.0125 17.4422 19.6375 17.0016L19.3072 16.6125C17.9143 14.9625 17.142 12.8391 17.142 10.6313V9.75C17.142 6.12187 14.6866 3.09375 11.4277 2.4V1.5C11.4277 0.670312 10.7893 0 9.99914 0ZM12.0215 23.1234C12.5572 22.5609 12.8563 21.7969 12.8563 21H9.99914H7.142C7.142 21.7969 7.44111 22.5609 7.97682 23.1234C8.51254 23.6859 9.24022 24 9.99914 24C10.7581 24 11.4858 23.6859 12.0215 23.1234Z" fill="white"/>
</g>
<defs>
<clipPath id="clip0_178_162">
<rect width="20" height="24" fill="white"/>
</clipPath>
</defs>
</svg>

