<svg width="16" height="18" viewBox="0 0 16 18" fill="none" xmlns="http://www.w3.org/2000/svg">
<path d="M2.28571 1.125C1.025 1.125 0 2.13398 0 3.375V14.625C0 15.866 1.025 16.875 2.28571 16.875H13.7143C14.975 16.875 16 15.866 16 14.625V3.375C16 2.13398 14.975 1.125 13.7143 1.125H2.28571ZM4.57143 7.875C5.20357 7.875 5.71429 8.37773 5.71429 9V12.375C5.71429 12.9973 5.20357 13.5 4.57143 13.5C3.93929 13.5 3.42857 12.9973 3.42857 12.375V9C3.42857 8.37773 3.93929 7.875 4.57143 7.875ZM6.85714 5.625C6.85714 5.00273 7.36786 4.5 8 4.5C8.63214 4.5 9.14286 5.00273 9.14286 5.625V12.375C9.14286 12.9973 8.63214 13.5 8 13.5C7.36786 13.5 6.85714 12.9973 6.85714 12.375V5.625ZM11.4286 10.125C12.0607 10.125 12.5714 10.6277 12.5714 11.25V12.375C12.5714 12.9973 12.0607 13.5 11.4286 13.5C10.7964 13.5 10.2857 12.9973 10.2857 12.375V11.25C10.2857 10.6277 10.7964 10.125 11.4286 10.125Z" fill="#FF634D"/>
</svg>

