<svg width="22" height="22" viewBox="0 0 22 22" fill="none" xmlns="http://www.w3.org/2000/svg">
<g clip-path="url(#clip0_152_1699)">
<path fill-rule="evenodd" clip-rule="evenodd" d="M6.36369 13.6584C6.41489 13.6584 6.46368 13.668 6.50873 13.6855C6.45995 13.7137 6.42684 13.7666 6.42684 13.8271C6.42684 13.9175 6.50007 13.9906 6.59046 13.9906C6.65235 13.9906 6.70607 13.9562 6.73391 13.9055C6.75348 13.9528 6.76444 14.0047 6.76444 14.0592C6.76444 14.2805 6.58498 14.4599 6.36369 14.4599C6.14241 14.4599 5.96289 14.2805 5.96289 14.0592C5.96289 13.8378 6.14241 13.6584 6.36369 13.6584ZM6.36369 14.7448C5.98564 14.7448 5.67802 14.4372 5.67802 14.0592C5.67802 13.6811 5.98564 13.3736 6.36369 13.3736C6.7417 13.3736 7.04926 13.6811 7.04926 14.0592C7.04926 14.4372 6.7417 14.7448 6.36369 14.7448ZM18.6871 10.2517C16.7402 15.4106 12.3432 17.7086 7.15938 17.7086C4.71005 17.7086 2.75601 16.8661 1.5063 15.4615L1.51551 15.4554C1.87558 15.4736 2.19778 15.4798 2.52486 15.4798C2.82393 15.4798 3.11648 15.4767 3.38742 15.4615C3.41099 15.4601 3.44049 15.4569 3.46389 15.4554C3.46411 15.4553 3.54748 15.4499 3.5067 15.4492C4.19528 15.4068 4.72901 15.311 5.22673 15.169C5.22662 15.1691 5.22684 15.169 5.22673 15.169C5.31717 15.1431 5.40521 15.1158 5.48924 15.0867C5.58324 15.0541 5.63302 14.9515 5.60046 14.8575C5.5679 14.7634 5.46534 14.7135 5.37127 14.7462C4.7391 14.9653 3.90509 15.0859 2.88297 15.1085C2.36288 15.12 1.79407 15.1063 1.17746 15.0667C1.04991 14.8964 0.931785 14.7194 0.8238 14.5361L0.653107 14.224C0.137411 13.2101 -0.0883701 12.0257 0.0314546 10.7395H15.0302C16.2623 10.7395 17.4657 10.2797 18.0367 9.77241C17.0135 8.94038 17.1149 6.96404 17.7671 6.2099C18.3331 6.6647 19.2458 7.62269 19.0888 8.84221C19.8011 8.48416 21.0381 8.30722 22 8.86233C21.3961 10.0412 20.0685 10.3934 18.6871 10.2517ZM2.06716 10.3755H4.09541V8.34712H2.06716V10.3755ZM4.40741 10.3755H6.43588V8.34712H4.40741V10.3755ZM4.40741 8.03512H6.43588V6.00681H4.40741V8.03512ZM6.74783 10.3755H8.77619V8.34712H6.74783V10.3755ZM6.74783 8.03512H8.77619V6.00681H6.74783V8.03512ZM9.08814 10.3755H11.1165V8.34712H9.08814V10.3755ZM9.08814 8.03512H11.1165V6.00681H9.08814V8.03512ZM9.08814 5.69486H11.1165V3.6665H9.08814V5.69486ZM11.4285 10.3755H13.4568V8.34712H11.4285V10.3755Z" fill="white"/>
</g>
<defs>
<clipPath id="clip0_152_1699">
<rect width="22" height="22" fill="white"/>
</clipPath>
</defs>
</svg>

