<svg width="19" height="19" viewBox="0 0 19 19" fill="none" xmlns="http://www.w3.org/2000/svg">
<path d="M1.5354 8.66118C1.07153 9.12505 1.07153 9.87837 1.5354 10.3422L7.4729 16.2797C7.93677 16.7436 8.69009 16.7436 9.15395 16.2797C9.61782 15.8159 9.61782 15.0625 9.15395 14.5987L4.05513 9.49985L9.15024 4.40103C9.61411 3.93716 9.61411 3.18384 9.15024 2.71997C8.68638 2.2561 7.93306 2.2561 7.46919 2.71997L1.53169 8.65747L1.5354 8.66118ZM14.5979 2.72368L8.6604 8.66118C8.19653 9.12505 8.19653 9.87837 8.6604 10.3422L14.5979 16.2797C15.0618 16.7436 15.8151 16.7436 16.279 16.2797C16.7428 15.8159 16.7428 15.0625 16.279 14.5987L11.1801 9.49985L16.2752 4.40103C16.7391 3.93716 16.7391 3.18384 16.2752 2.71997C15.8114 2.2561 15.0581 2.2561 14.5942 2.71997L14.5979 2.72368Z" fill="white"/>
</svg>

