<svg width="16" height="16" viewBox="0 0 16 16" fill="none" xmlns="http://www.w3.org/2000/svg">
<path d="M2.5 1C1.67188 1 1 1.67188 1 2.5C1 3.32812 1.67188 4 2.5 4H7.25V5.25L5.75 6.75H4C2.48125 6.75 1.25 7.98125 1.25 9.5V11H1C0.446875 11 0 11.4469 0 12V14C0 14.5531 0.446875 15 1 15H3C3.55312 15 4 14.5531 4 14V12C4 11.4469 3.55312 11 3 11H2.75V9.5C2.75 8.80937 3.30938 8.25 4 8.25H5.75L7.25 9.75V11H7C6.44688 11 6 11.4469 6 12V14C6 14.5531 6.44688 15 7 15H9C9.55313 15 10 14.5531 10 14V12C10 11.4469 9.55313 11 9 11H8.75V9.75L10.25 8.25H12C12.6906 8.25 13.25 8.80937 13.25 9.5V11H13C12.4469 11 12 11.4469 12 12V14C12 14.5531 12.4469 15 13 15H15C15.5531 15 16 14.5531 16 14V12C16 11.4469 15.5531 11 15 11H14.75V9.5C14.75 7.98125 13.5188 6.75 12 6.75H10.25L8.75 5.25V4H13.5C14.3281 4 15 3.32812 15 2.5C15 1.67188 14.3281 1 13.5 1H2.5Z" fill="#FF634D"/>
</svg>

