<svg width="15" height="15" viewBox="0 0 15 15" fill="none" xmlns="http://www.w3.org/2000/svg">
<g clip-path="url(#clip0_165_649)">
<path d="M12.0202 6.76758L12.3513 6.43652L11.3581 5.44336L9.5388 3.62402L8.54564 2.63086L8.21459 2.96191L7.55248 3.62402L1.71654 9.45996C1.41185 9.76465 1.18919 10.1426 1.06615 10.5557L0.0290382 14.083C-0.0442039 14.3291 0.0231789 14.5957 0.207749 14.7773C0.39232 14.959 0.655991 15.0264 0.902085 14.9561L4.4265 13.9189C4.83959 13.7959 5.21751 13.5732 5.5222 13.2686L11.3581 7.43262L12.0202 6.76758ZM4.68724 11.7012L4.42064 12.3662C4.30345 12.457 4.17162 12.5244 4.03099 12.5684L1.73998 13.2422L2.4138 10.9541C2.45482 10.8105 2.52513 10.6787 2.61595 10.5645L3.28099 10.2979V11.2354C3.28099 11.4932 3.49193 11.7041 3.74974 11.7041H4.68724V11.7012ZM10.6257 0.547852L10.2038 0.972656L9.54173 1.63477L9.20775 1.96582L10.2009 2.95898L12.0202 4.77832L13.0134 5.77148L13.3445 5.44043L14.0066 4.77832L14.4314 4.35352C15.1638 3.62109 15.1638 2.43457 14.4314 1.70215L13.28 0.547852C12.5476 -0.18457 11.3611 -0.18457 10.6286 0.547852H10.6257ZM9.23705 5.46973L5.0183 9.68848C4.83666 9.87012 4.53783 9.87012 4.35619 9.68848C4.17455 9.50684 4.17455 9.20801 4.35619 9.02637L8.57494 4.80762C8.75658 4.62598 9.05541 4.62598 9.23705 4.80762C9.41869 4.98926 9.41869 5.28809 9.23705 5.46973Z" fill="white" fill-opacity="0.6"/>
</g>
<defs>
<clipPath id="clip0_165_649">
<rect width="15" height="15" fill="white"/>
</clipPath>
</defs>
</svg>

