<svg width="22" height="22" viewBox="0 0 22 22" fill="none" xmlns="http://www.w3.org/2000/svg">
<g clip-path="url(#clip0_155_2)">
<path d="M15.7671 0.251953L6.18794 0.282203C6.15215 0.282186 6.11683 0.290258 6.08461 0.305814C6.05239 0.32137 6.02409 0.344008 6.00185 0.372036L0.0517693 7.88504C0.0295488 7.91291 0.0138904 7.94543 0.0059559 7.98018C-0.00197857 8.01494 -0.00198538 8.05103 0.00593599 8.08579L2.1656 17.4303C2.1738 17.4647 2.18957 17.4969 2.21177 17.5245C2.23397 17.5521 2.26204 17.5744 2.29394 17.5898L10.9381 21.7249C10.9703 21.74 11.0054 21.7477 11.041 21.7474C11.0765 21.7471 11.1115 21.7388 11.1434 21.723L19.761 17.5375C19.7932 17.5222 19.8216 17.4999 19.8439 17.4721C19.8663 17.4443 19.8822 17.4118 19.8903 17.3771L21.994 8.0207C22.002 7.98574 22.002 7.94942 21.9939 7.91448C21.9858 7.87955 21.9698 7.84691 21.9473 7.81904L15.9532 0.342703C15.931 0.314507 15.9028 0.291694 15.8706 0.275976C15.8383 0.260259 15.803 0.252046 15.7671 0.251953ZM15.6544 0.72587L21.5073 8.02804L19.4521 17.1617L11.0399 21.2473L2.60194 17.2121L0.495436 8.09129L6.30252 0.755203L15.6544 0.72587ZM10.5054 2.61879C9.65019 2.61879 8.81877 2.71045 8.2816 2.92312H8.27977C6.85527 3.4447 5.78185 4.8527 5.46194 6.54579V6.54945C5.17869 7.89054 5.1026 9.0272 4.95227 10.0548C4.8881 10.4957 4.80652 10.9165 4.69285 11.3262C4.11719 11.7818 3.70377 12.484 3.55252 13.286V13.2897C3.44619 13.7911 3.3866 14.243 3.33527 14.6647H2.74494V15.1395H10.895C10.8391 15.5649 10.7832 16.0525 10.7291 16.4412H6.96344V16.9151H14.2409C14.019 16.8436 13.7954 16.7153 13.5479 16.455H12.9089L12.1298 16.9023L11.9171 16.5393L12.0656 16.455H11.0857C11.1893 15.7436 11.2415 14.9874 11.4276 14.1046V14.101C11.6293 13.034 12.3076 12.165 13.1647 11.8524L13.1684 11.8505H13.1702C13.4617 11.7341 14.0209 11.6626 14.5846 11.6626C15.1465 11.6626 15.7249 11.7314 16.0714 11.8524C16.9285 12.165 17.6078 13.0349 17.8085 14.101V14.1046C17.9955 14.9874 18.0469 15.7436 18.1504 16.455H17.4703L17.6188 16.5393L17.4052 16.9023L16.626 16.455H15.9385C15.7378 16.6841 15.504 16.8326 15.2538 16.9151H19.2798V16.4403H18.5079C18.4135 15.7592 18.342 14.9095 18.1578 14.0359V14.034C18.1062 13.7623 18.025 13.497 17.9158 13.243H19.6235V12.769H17.671C17.4768 12.4516 17.2286 12.1706 16.9377 11.9385H18.5877V11.4637H16.4546C16.385 11.2297 16.326 10.9926 16.2777 10.7533H17.638V10.2785H16.1934C16.1814 10.2042 16.1686 10.1309 16.1576 10.0548C16.0073 9.02812 15.9321 7.89145 15.6489 6.54945V6.54579C15.3299 4.85179 14.2555 3.4447 12.8301 2.92312L12.8283 2.92129H12.8264C12.2306 2.7132 11.3634 2.61879 10.5064 2.61879H10.5054ZM10.5054 2.97262C11.3341 2.97262 12.1857 3.07345 12.7091 3.25587H12.7109C13.9943 3.72704 15.0026 5.0287 15.3014 6.61637V6.61912C15.5792 7.93545 15.6544 9.05745 15.8074 10.107C15.8771 10.5791 15.966 11.0356 16.0962 11.4866C15.6846 11.3629 15.1337 11.306 14.5855 11.306C14.4755 11.306 14.3692 11.3088 14.2629 11.3134L12.5551 9.60379C12.5934 9.53078 12.627 9.45547 12.6559 9.37829L14.6084 10.5058L14.7276 10.3005L12.7247 9.14362C12.7394 9.08037 12.7494 9.01529 12.7577 8.95112L14.8679 9.51579L14.9302 9.28845L12.7724 8.71095C12.754 7.65404 11.8484 6.80612 10.7484 6.80612C9.64377 6.80612 8.73535 7.65954 8.72619 8.72287L6.6151 9.28845L6.6756 9.51762L8.73994 8.96304C8.7491 9.0327 8.76194 9.10145 8.77752 9.16837L6.81677 10.3032L6.93502 10.5067L8.8481 9.40029C8.87927 9.48187 8.91594 9.56162 8.9581 9.63679L7.7976 10.7973C7.48048 10.7503 7.16026 10.7274 6.83969 10.7285C6.28694 10.7285 5.75252 10.7872 5.39319 10.9302C5.30397 10.963 5.21674 11.0009 5.13194 11.0439C5.2016 10.7368 5.25752 10.4251 5.30335 10.108C5.45735 9.05929 5.53069 7.93545 5.80844 6.62004L5.81027 6.61912V6.61729C6.1091 5.0287 7.11744 3.72704 8.4026 3.25679H8.40444L8.4081 3.25495C8.85544 3.07712 9.67402 2.97354 10.5045 2.97354L10.5054 2.97262ZM7.76735 4.76104C7.59536 4.769 7.42715 4.81428 7.2744 4.89374C7.12165 4.9732 6.98802 5.08494 6.88277 5.2212L6.77552 5.36145L7.05602 5.57779L7.16602 5.43845C7.24008 5.34399 7.33339 5.26636 7.43975 5.21073C7.54612 5.15509 7.6631 5.12273 7.78294 5.11579C7.89619 5.11251 8.00895 5.13209 8.11447 5.17335C8.21999 5.21461 8.31611 5.27672 8.3971 5.35595L8.52452 5.47879L8.77294 5.2267L8.64827 5.10112C8.5325 4.98726 8.39457 4.8984 8.24303 4.84006C8.0915 4.78171 7.92959 4.75513 7.76735 4.76195V4.76104ZM13.6249 4.76104C13.4627 4.75424 13.3008 4.78093 13.1494 4.83944C12.998 4.89795 12.8603 4.98703 12.7449 5.10112L12.6184 5.2267L12.8695 5.47879L12.9942 5.35595C13.0755 5.27662 13.1719 5.21447 13.2778 5.17321C13.3836 5.13195 13.4966 5.11242 13.6102 5.11579C13.7302 5.1226 13.8473 5.1549 13.9539 5.21054C14.0604 5.26618 14.1539 5.34387 14.228 5.43845L14.3371 5.57779L14.6185 5.36145L14.5085 5.2212C14.2977 4.9462 13.9704 4.7757 13.6249 4.76104ZM7.8196 6.14887C7.2311 6.14887 6.7526 6.64204 6.7526 7.2397C6.7526 7.83554 7.2311 8.32779 7.8196 8.32779C8.40902 8.32779 8.8866 7.83645 8.8866 7.23879C8.8866 6.64204 8.40902 6.14795 7.8196 6.14795V6.14887ZM13.5699 6.14887C12.9804 6.14887 12.5047 6.64204 12.5047 7.2397C12.5047 7.83554 12.9814 8.32779 13.5699 8.32779C14.1593 8.32779 14.6369 7.83645 14.6369 7.23879C14.6369 6.64204 14.1593 6.14795 13.5699 6.14795V6.14887ZM7.8196 6.50362C8.21194 6.50362 8.53094 6.82904 8.53094 7.23879C8.53094 7.64854 8.21194 7.97212 7.8196 7.97212C7.72471 7.97093 7.63099 7.95098 7.54384 7.91342C7.45669 7.87586 7.37783 7.82144 7.3118 7.75328C7.24577 7.68512 7.19388 7.60457 7.1591 7.51627C7.12433 7.42797 7.10736 7.33367 7.10919 7.23879C7.10919 7.2067 7.11102 7.17462 7.11469 7.14437C7.17885 7.31945 7.34202 7.43587 7.5226 7.43587C7.64085 7.43346 7.7533 7.38423 7.83528 7.29899C7.91726 7.21374 7.96206 7.09945 7.95985 6.9812C7.9615 6.87789 7.92748 6.77718 7.86353 6.69603C7.79957 6.61487 7.7096 6.55825 7.60877 6.5357C7.67698 6.51424 7.74809 6.50342 7.8196 6.50362ZM13.5699 6.50362C13.9622 6.50362 14.2821 6.82904 14.2821 7.23879C14.2821 7.64854 13.9622 7.97212 13.5699 7.97212C13.467 7.97126 13.3654 7.94835 13.2721 7.90492C13.1788 7.86149 13.096 7.79855 13.0291 7.72036C12.9622 7.64217 12.9128 7.55054 12.8843 7.45165C12.8559 7.35276 12.8489 7.24891 12.864 7.14712C12.93 7.32129 13.0914 7.43587 13.271 7.43587C13.3298 7.43504 13.3878 7.42259 13.4417 7.39926C13.4956 7.37592 13.5443 7.34215 13.5852 7.29989C13.626 7.25763 13.658 7.20772 13.6795 7.15303C13.7009 7.09833 13.7113 7.03994 13.7101 6.9812C13.7112 6.87825 13.6769 6.77805 13.613 6.69731C13.5491 6.61657 13.4595 6.56018 13.359 6.53754C13.4271 6.51539 13.4982 6.50395 13.5699 6.50362ZM10.7465 7.15995C11.6742 7.15995 12.4139 7.87037 12.4139 8.73937C12.4139 9.60745 11.6742 10.3179 10.7465 10.3179C9.81885 10.3179 9.07819 9.60745 9.07819 8.73937C9.07819 7.87037 9.81885 7.15995 10.7465 7.15995ZM10.7447 7.64395C10.6145 7.64395 10.5082 7.68337 10.4193 7.71362C10.3512 7.74059 10.2796 7.75727 10.2066 7.76312C10.1085 7.76312 10.0233 7.8062 9.96094 7.87954C9.91646 7.93557 9.88401 8.00016 9.8656 8.06929C9.82894 8.19212 9.80877 8.31495 9.79227 8.35804C9.77861 8.39582 9.77415 8.43631 9.77925 8.47616C9.78435 8.51602 9.79887 8.55408 9.8216 8.5872C9.85185 8.63854 9.88669 8.67887 9.92885 8.72104C10.0114 8.80537 10.1177 8.88879 10.224 8.9667C10.334 9.04737 10.4413 9.11887 10.5229 9.17204L10.5155 9.25454C10.4761 9.28754 10.3872 9.34804 10.2185 9.4177C10.1312 9.45143 10.0361 9.45938 9.94444 9.44062C9.85614 9.41491 9.77961 9.35914 9.7281 9.28295C9.74185 9.15645 9.76844 9.01437 9.79044 8.87137L9.44577 8.78429C9.39994 9.00245 9.38435 9.17845 9.3596 9.37095L9.39352 9.42504C9.5246 9.63037 9.68502 9.74037 9.85735 9.78437C10.0158 9.82107 10.1815 9.81055 10.334 9.75412C10.4808 9.70265 10.6182 9.62774 10.741 9.53229C10.8217 9.5937 10.9647 9.69179 11.1499 9.75412C11.3024 9.81055 11.4681 9.82107 11.6265 9.78437C11.8216 9.72826 11.9879 9.59971 12.0913 9.42504L12.1252 9.37095C12.1058 9.17494 12.0765 8.98005 12.0372 8.78704L11.6916 8.87137C11.7209 9.00704 11.7384 9.1647 11.7558 9.28479C11.7035 9.36024 11.6267 9.41529 11.5385 9.44062C11.4466 9.45956 11.3511 9.45161 11.2635 9.4177C11.1004 9.35537 11.0142 9.28937 10.9656 9.25454L10.9601 9.17754C11.0426 9.12437 11.1517 9.05195 11.2681 8.9667C11.3735 8.88879 11.4799 8.80537 11.5633 8.72104C11.6047 8.68128 11.6407 8.63629 11.6705 8.5872C11.6933 8.5541 11.7078 8.51598 11.7127 8.47609C11.7177 8.4362 11.713 8.39571 11.6989 8.35804C11.6824 8.31495 11.6632 8.19212 11.6256 8.06929C11.6076 8.0002 11.5754 7.93559 11.5312 7.87954C11.5016 7.84299 11.4641 7.81355 11.4216 7.79341C11.3791 7.77326 11.3326 7.76291 11.2855 7.76312C11.212 7.7573 11.1397 7.74062 11.071 7.71362C10.9821 7.68337 10.8767 7.64395 10.7465 7.64395H10.7447ZM10.7465 7.99779C10.7988 7.99779 10.8694 8.01979 10.9574 8.05004C11.0399 8.07754 11.148 8.1142 11.2663 8.1197C11.3029 8.2132 11.3213 8.33695 11.3488 8.42954C11.3374 8.44432 11.3249 8.45812 11.3112 8.47079C11.2316 8.54606 11.1471 8.61588 11.0582 8.67979C10.9069 8.79162 10.8098 8.85212 10.7447 8.89337C10.6381 8.82625 10.5341 8.75501 10.433 8.67979C10.3442 8.61608 10.26 8.54625 10.1809 8.47079C10.1674 8.45757 10.1552 8.44315 10.1443 8.4277C10.1764 8.31862 10.1864 8.2132 10.2259 8.11604C10.2992 8.12704 10.4514 8.07754 10.5339 8.05004C10.6019 8.02254 10.6735 8.00495 10.7465 7.99779ZM7.78202 8.55695C7.64846 8.55968 7.51989 8.60827 7.41791 8.69456C7.31593 8.78085 7.24673 8.8996 7.22194 9.03087L8.2156 8.76595C8.16328 8.70123 8.09725 8.64891 8.02228 8.61277C7.9473 8.57663 7.86525 8.55756 7.78202 8.55695ZM13.59 8.55695C13.5153 8.55738 13.4415 8.57277 13.3728 8.60222C13.3042 8.63166 13.2421 8.67455 13.1904 8.72837C13.513 8.81637 13.8229 8.89704 14.1373 8.98045C14.1038 8.86038 14.0324 8.75432 13.9338 8.67802C13.8352 8.60173 13.7147 8.55927 13.59 8.55695ZM13.0189 9.11337C13.0125 9.14545 13.0171 9.17754 13.0171 9.20779L13.8614 9.69545C13.975 9.63033 14.064 9.52946 14.1144 9.40854L13.0189 9.11337ZM8.35677 9.1592L7.2751 9.44795C7.3466 9.58545 7.46485 9.68995 7.60694 9.73762L8.33752 9.31595C8.35402 9.26187 8.35127 9.20595 8.35677 9.16012V9.1592ZM12.4277 9.8137L13.9457 11.3335C13.6895 11.3527 13.4358 11.3975 13.1885 11.4674L12.3177 9.95762C12.3562 9.91111 12.3929 9.8631 12.4277 9.8137ZM9.08552 9.8412C9.12219 9.89162 9.1616 9.94937 9.20377 9.99612L8.6006 11.0356C8.5184 10.9945 8.43393 10.9581 8.3476 10.9265L8.34577 10.9247C8.25775 10.8956 8.16843 10.8705 8.0781 10.8495L9.08552 9.8412ZM12.1454 10.1318L12.963 11.5499C12.3919 11.78 11.9098 12.2145 11.5669 12.769H10.0526C9.81244 12.0815 9.37335 11.504 8.80777 11.152L9.37885 10.1602C9.74002 10.4783 10.2213 10.6726 10.7465 10.6726C11.2641 10.6743 11.7635 10.4812 12.1454 10.1318ZM6.83877 11.0824C7.36494 11.0824 7.90852 11.1493 8.23027 11.2611C9.02502 11.5535 9.65569 12.3639 9.8436 13.3557L9.84452 13.3575V13.3594C9.94444 13.8296 10.0031 14.2577 10.0526 14.6647H9.03877C8.97519 14.6118 8.89508 14.5828 8.81235 14.5828C8.72962 14.5828 8.64951 14.6118 8.58594 14.6647H8.35127C8.34781 14.534 8.32368 14.4047 8.27977 14.2815C8.34792 14.3506 8.42912 14.4055 8.51866 14.443C8.6082 14.4804 8.70429 14.4997 8.80135 14.4997C9.21385 14.4997 9.54752 14.156 9.54752 13.7407C9.5485 13.5413 9.47061 13.3496 9.33083 13.2075C9.19105 13.0653 9.00072 12.9841 8.80135 12.9817C8.68788 12.9828 8.57611 13.0095 8.47439 13.0598C8.37267 13.1101 8.28363 13.1827 8.21392 13.2723C8.14421 13.3618 8.09562 13.466 8.07178 13.5769C8.04795 13.6879 8.04948 13.8028 8.07627 13.913C7.94648 13.7514 7.7817 13.6213 7.59433 13.5325C7.40697 13.4437 7.20191 13.3986 6.9946 13.4006C6.2631 13.4006 5.65627 13.9607 5.63794 14.6656H5.32444C5.26086 14.6127 5.18075 14.5837 5.09802 14.5837C5.01529 14.5837 4.93518 14.6127 4.8716 14.6656H3.69277C3.74227 14.2577 3.7991 13.8296 3.8981 13.3594L3.89994 13.3575V13.3557C4.08785 12.362 4.71944 11.5499 5.51694 11.2593H5.51877L5.52244 11.2575C5.79285 11.1502 6.31352 11.0824 6.83969 11.0833L6.83877 11.0824ZM5.08794 12.0953C4.96854 12.1007 4.85176 12.132 4.7457 12.1871C4.63964 12.2422 4.54685 12.3197 4.47377 12.4143L4.36469 12.5555L4.6461 12.7727L4.75519 12.6306C4.7972 12.5779 4.84985 12.5345 4.9097 12.5034C4.96955 12.4723 5.03527 12.4541 5.1026 12.45C5.16629 12.4483 5.22968 12.4593 5.28904 12.4824C5.3484 12.5056 5.40251 12.5404 5.44819 12.5848L5.57469 12.7095L5.82402 12.4574L5.69844 12.3318C5.61836 12.2526 5.52283 12.1907 5.4178 12.15C5.31277 12.1093 5.20048 12.0907 5.08794 12.0953ZM8.84077 12.0953C8.72795 12.0907 8.6154 12.1093 8.51007 12.15C8.40474 12.1907 8.30889 12.2526 8.22844 12.3318L8.10285 12.4574L8.3531 12.7095L8.47869 12.5848C8.52442 12.5405 8.57855 12.5057 8.63789 12.4826C8.69723 12.4594 8.7606 12.4484 8.82427 12.45C8.8916 12.4541 8.95732 12.4723 9.01717 12.5034C9.07702 12.5345 9.12967 12.5779 9.17169 12.6306L9.28077 12.7727L9.56219 12.5555L9.45219 12.4143C9.37958 12.3199 9.28726 12.2424 9.18167 12.1873C9.07607 12.1322 8.95974 12.1008 8.84077 12.0953ZM12.7109 12.769C12.5851 12.7745 12.462 12.8072 12.3501 12.865C12.2381 12.9227 12.1401 13.0042 12.0629 13.1036L11.9556 13.2448L12.2361 13.462L12.3461 13.32C12.3919 13.2626 12.4493 13.2155 12.5145 13.1818C12.5798 13.1482 12.6514 13.1287 12.7247 13.1247C12.7945 13.1225 12.864 13.1342 12.9292 13.1592C12.9943 13.1843 13.0538 13.2221 13.1042 13.2705L13.2325 13.3951L13.48 13.143L13.3535 13.0175C13.2692 12.9342 13.1686 12.8691 13.0581 12.8264C12.9475 12.7836 12.8294 12.7641 12.7109 12.769ZM16.7204 12.769C16.6022 12.7643 16.4842 12.7838 16.3738 12.8266C16.2634 12.8693 16.163 12.9343 16.0788 13.0175L15.9504 13.143L16.1998 13.3951L16.3272 13.2705C16.3775 13.2221 16.437 13.1843 16.5022 13.1592C16.5674 13.1342 16.6369 13.1225 16.7067 13.1247C16.7801 13.1286 16.8519 13.148 16.9174 13.1817C16.9828 13.2153 17.0403 13.2624 17.0862 13.32L17.1953 13.462L17.4758 13.2448L17.3685 13.1036C17.2912 13.0042 17.1932 12.9227 17.0813 12.865C16.9694 12.8072 16.8463 12.7745 16.7204 12.769ZM5.1246 12.9817C4.92507 12.9839 4.73451 13.0649 4.59453 13.2071C4.45456 13.3493 4.37654 13.5412 4.37752 13.7407C4.37752 14.156 4.7121 14.4997 5.12369 14.4997C5.53619 14.4997 5.87077 14.156 5.87077 13.7407C5.87175 13.5412 5.79373 13.3493 5.65376 13.2071C5.51378 13.0649 5.32413 12.9839 5.1246 12.9817ZM10.1828 13.243H11.3213C11.2122 13.4974 11.1314 13.7629 11.0802 14.035V14.0368C11.0344 14.254 10.9959 14.4621 10.9638 14.6647H10.4119C10.3606 14.2033 10.2884 13.7445 10.1956 13.2897L10.1938 13.2879C10.191 13.2732 10.1855 13.2585 10.1828 13.243ZM5.12369 13.3365C5.176 13.3369 5.22769 13.3478 5.27576 13.3685C5.32383 13.3891 5.3673 13.4191 5.40365 13.4567C5.43999 13.4944 5.46849 13.5389 5.48746 13.5876C5.50644 13.6364 5.51553 13.6884 5.51419 13.7407C5.51565 13.7931 5.50666 13.8452 5.48774 13.8941C5.46881 13.9429 5.44034 13.9875 5.40398 14.0253C5.36762 14.063 5.32411 14.0931 5.27598 14.1138C5.22785 14.1345 5.17608 14.1454 5.12369 14.1459C4.92202 14.1459 4.75702 13.9891 4.73685 13.782C4.76232 13.8086 4.79291 13.8298 4.82678 13.8443C4.86065 13.8588 4.8971 13.8662 4.93394 13.8663C4.97133 13.8657 5.00824 13.8577 5.04255 13.8428C5.07686 13.8279 5.10789 13.8064 5.13387 13.7795C5.15984 13.7526 5.18025 13.7208 5.19392 13.686C5.20759 13.6512 5.21425 13.614 5.21352 13.5766C5.21392 13.5307 5.20341 13.4853 5.18285 13.4441C5.1623 13.403 5.13228 13.3674 5.09527 13.3401C5.10444 13.3392 5.1136 13.3365 5.12369 13.3365ZM8.80319 13.3365C9.0186 13.3365 9.1946 13.5134 9.1946 13.7407C9.1957 13.7931 9.18642 13.8451 9.1673 13.8939C9.14819 13.9426 9.11962 13.9871 9.08324 14.0248C9.04685 14.0624 9.00338 14.0925 8.95531 14.1133C8.90725 14.1341 8.85555 14.1452 8.80319 14.1459C8.70357 14.1448 8.6081 14.1059 8.53622 14.0369C8.46435 13.9679 8.42148 13.8741 8.41635 13.7746C8.44076 13.8151 8.47517 13.8485 8.51627 13.8718C8.55738 13.8951 8.60378 13.9074 8.65102 13.9075C8.68842 13.9068 8.72531 13.8987 8.75957 13.8837C8.79383 13.8687 8.8248 13.8471 8.85069 13.8201C8.87658 13.7931 8.89689 13.7613 8.91044 13.7264C8.924 13.6915 8.93054 13.6543 8.92969 13.617C8.93021 13.5574 8.91225 13.4991 8.87826 13.4502C8.84427 13.4013 8.79594 13.3641 8.73994 13.3438C8.76102 13.3401 8.78119 13.3365 8.80319 13.3365ZM12.7485 13.716C12.5389 13.7181 12.3386 13.8033 12.1915 13.9527C12.0445 14.1022 11.9626 14.3038 11.9639 14.5135C11.9639 14.9516 12.314 15.3146 12.7485 15.3146C12.9586 15.312 13.1591 15.2263 13.3062 15.0764C13.4534 14.9265 13.5353 14.7245 13.5341 14.5144C13.5351 14.3045 13.453 14.1028 13.3059 13.9532C13.1587 13.8037 12.9583 13.7184 12.7485 13.716ZM16.6828 13.716C16.5577 13.7172 16.4346 13.7481 16.3237 13.8059C16.2127 13.8637 16.1169 13.947 16.0442 14.0488C15.9715 14.1507 15.9238 14.2683 15.9051 14.392C15.8865 14.5158 15.8973 14.6422 15.9367 14.761C15.8 14.5747 15.6212 14.4235 15.4149 14.3196C15.2086 14.2158 14.9806 14.1622 14.7496 14.1633C13.9741 14.1633 13.3324 14.7591 13.3123 15.5044L11.9144 15.8784L11.9749 16.1057L13.3288 15.7445C13.3324 15.7702 13.337 15.7995 13.3425 15.8243L12.0427 16.5732L12.1628 16.7767L13.4159 16.0535C13.6313 16.5595 14.1501 16.9151 14.7496 16.9151C15.3546 16.9151 15.8799 16.5512 16.0907 16.0379L17.3722 16.7767L17.4914 16.5732L16.1622 15.8069C16.1668 15.784 16.1695 15.7583 16.1732 15.7354L17.5583 16.1057L17.6197 15.8784L16.1869 15.4952C16.1819 15.3378 16.1487 15.1826 16.0889 15.0369C16.2328 15.2074 16.4464 15.3146 16.6828 15.3146C16.8928 15.312 17.0932 15.2263 17.2403 15.0764C17.3873 14.9264 17.469 14.7244 17.4675 14.5144C17.469 14.3045 17.3872 14.1027 17.2401 13.953C17.0931 13.8034 16.8927 13.7181 16.6828 13.716ZM6.99644 13.7554C7.5446 13.7554 7.97819 14.1624 7.99744 14.6647H7.6216C7.62802 14.6555 7.63627 14.6464 7.64269 14.6345C7.66242 14.6051 7.6748 14.5715 7.67879 14.5364C7.68278 14.5013 7.67826 14.4658 7.6656 14.4328C7.66102 14.4181 7.64635 14.3393 7.61977 14.2531C7.60631 14.2009 7.58194 14.1522 7.54827 14.1101C7.52379 14.0789 7.49246 14.0537 7.45669 14.0366C7.42093 14.0194 7.38169 14.0107 7.34202 14.0111C7.30151 14.007 7.26174 13.9974 7.22377 13.9827C7.16694 13.9635 7.0936 13.9369 6.99644 13.9369C6.89927 13.9369 6.8241 13.9635 6.76727 13.9827C6.72991 13.9973 6.69075 14.0069 6.65085 14.0111C6.61127 14.0112 6.57222 14.0202 6.53653 14.0373C6.50085 14.0544 6.46944 14.0793 6.4446 14.1101C6.41046 14.1522 6.38548 14.2009 6.37127 14.2531C6.34469 14.3393 6.33185 14.4181 6.32727 14.4319C6.3145 14.4647 6.30975 14.5002 6.31342 14.5353C6.31709 14.5703 6.32906 14.604 6.34835 14.6335C6.35569 14.6464 6.36394 14.6546 6.37127 14.6647H5.99544C6.01377 14.1624 6.44827 13.7554 6.99644 13.7554ZM12.7485 14.0707C12.9859 14.0707 13.1794 14.2641 13.1794 14.5144C13.1804 14.5719 13.1702 14.6292 13.1491 14.6828C13.128 14.7363 13.0965 14.7852 13.0565 14.8266C13.0165 14.868 12.9686 14.9011 12.9158 14.924C12.8629 14.9468 12.8061 14.959 12.7485 14.9599C12.6375 14.9588 12.5312 14.9151 12.4515 14.8378C12.3718 14.7605 12.3249 14.6555 12.3204 14.5446C12.3481 14.5776 12.3826 14.6041 12.4215 14.6223C12.4605 14.6405 12.5029 14.65 12.5459 14.65C12.7109 14.65 12.8448 14.5125 12.8448 14.3402C12.8452 14.2876 12.8324 14.2357 12.8074 14.1893C12.7824 14.143 12.746 14.1038 12.7018 14.0753C12.7174 14.0735 12.7329 14.0707 12.7485 14.0707ZM16.6828 14.0707C16.9212 14.0707 17.1128 14.2641 17.1128 14.5144C17.1128 14.7637 16.9203 14.9599 16.6828 14.9599C16.6253 14.959 16.5684 14.9468 16.5156 14.924C16.4627 14.9011 16.4149 14.868 16.3749 14.8266C16.3348 14.7852 16.3034 14.7363 16.2823 14.6828C16.2612 14.6292 16.2509 14.5719 16.252 14.5144C16.252 14.4997 16.2539 14.486 16.2557 14.4713C16.2734 14.5338 16.3108 14.589 16.3623 14.6286C16.4138 14.6682 16.4767 14.6902 16.5417 14.6913C16.7067 14.6913 16.8405 14.5538 16.8405 14.3815C16.8414 14.3117 16.8187 14.2437 16.7761 14.1885C16.7335 14.1333 16.6735 14.094 16.6059 14.0771C16.6313 14.0727 16.657 14.0706 16.6828 14.0707ZM6.99644 14.2907C7.01569 14.2907 7.05419 14.2999 7.11102 14.3191C7.18985 14.3466 7.21827 14.3549 7.28152 14.364C7.29252 14.4016 7.30169 14.4447 7.31177 14.4823C7.26362 14.5282 7.21214 14.5705 7.15777 14.6088C7.12294 14.6345 7.0991 14.65 7.0771 14.6647H6.91577C6.89377 14.65 6.8681 14.6345 6.83327 14.6097C6.77907 14.5705 6.72762 14.5276 6.67927 14.4814L6.71044 14.364C6.80852 14.3512 6.84427 14.3274 6.88002 14.3191C6.91743 14.3046 6.95656 14.2951 6.99644 14.2907ZM14.7496 14.5199C15.3555 14.5199 15.8349 14.98 15.8349 15.5401C15.8349 15.6831 15.8029 15.8188 15.7469 15.9435L15.7451 15.9215L15.7249 15.7785C15.7164 15.7046 15.7041 15.6311 15.6883 15.5585L15.3427 15.6437L15.383 15.8949C15.3552 15.9272 15.3186 15.9508 15.2776 15.9627C15.2261 15.9733 15.1726 15.9688 15.1236 15.9499C15.0439 15.9224 15.0026 15.8921 14.9586 15.8637C15.0109 15.8298 15.0778 15.7867 15.1401 15.7409C15.2134 15.6859 15.2868 15.6281 15.3473 15.5667C15.3798 15.5367 15.4081 15.5025 15.4316 15.465C15.4519 15.435 15.4646 15.4007 15.4688 15.3647C15.4729 15.3288 15.4684 15.2925 15.4554 15.2587C15.4481 15.2413 15.4353 15.156 15.4069 15.0662C15.3919 15.0116 15.3656 14.9607 15.3299 14.9168C15.3046 14.8853 15.2725 14.8601 15.2359 14.8431C15.1993 14.8261 15.1593 14.8177 15.119 14.8187C15.075 14.8129 15.0318 14.8015 14.9907 14.7848C14.9311 14.7646 14.8514 14.7344 14.7496 14.7344C14.6488 14.7344 14.5709 14.7637 14.5094 14.7848C14.4683 14.8015 14.4251 14.8129 14.3811 14.8187C14.3409 14.8183 14.301 14.8269 14.2646 14.8438C14.2281 14.8608 14.1959 14.8857 14.1703 14.9168C14.1347 14.9604 14.1088 15.011 14.0942 15.0653C14.0667 15.157 14.0529 15.2413 14.0465 15.2587C14.0335 15.2924 14.0289 15.3287 14.0328 15.3646C14.0368 15.4005 14.0494 15.4349 14.0694 15.465C14.0923 15.5024 14.12 15.5366 14.1519 15.5667C14.2124 15.6281 14.2858 15.6859 14.3591 15.7409C14.4214 15.7867 14.4856 15.828 14.5369 15.8619C14.4877 15.9009 14.4318 15.9307 14.3719 15.9499C14.3223 15.9689 14.2682 15.9733 14.2161 15.9627C14.1762 15.9498 14.1408 15.9256 14.1144 15.893C14.1217 15.8105 14.1382 15.7308 14.151 15.6437L13.8064 15.5575C13.777 15.6914 13.7651 15.8197 13.7486 15.9325C13.6939 15.8089 13.6658 15.6752 13.6661 15.5401C13.6661 14.98 14.1437 14.5199 14.7496 14.5199ZM14.7496 15.091C14.7734 15.091 14.8174 15.1001 14.8779 15.1212C14.9384 15.1441 15.0329 15.1689 15.0668 15.1716L15.0989 15.3146C15.0622 15.3513 14.9962 15.4063 14.9302 15.454C14.8431 15.5181 14.8019 15.541 14.7496 15.574C14.6983 15.541 14.6579 15.5181 14.5709 15.4549C14.5101 15.4125 14.4536 15.3643 14.4022 15.311L14.4343 15.1716C14.4988 15.1613 14.5621 15.1444 14.6231 15.1212C14.6637 15.1054 14.7063 15.0952 14.7496 15.091ZM12.7146 15.4145C12.6379 15.4172 12.5636 15.4422 12.5009 15.4865C12.4382 15.5308 12.3898 15.5925 12.3617 15.6639L12.963 15.5025C12.8933 15.4446 12.8052 15.4134 12.7146 15.4145ZM16.6865 15.4145C16.6146 15.4164 16.5446 15.4386 16.4849 15.4787L17.0376 15.6254C17.0043 15.5612 16.9539 15.5075 16.8919 15.4702C16.8299 15.433 16.7588 15.4137 16.6865 15.4145ZM12.9704 15.9343L12.4139 16.0828C12.445 16.1244 12.484 16.1596 12.5285 16.1864L12.9704 15.9343ZM16.5683 15.9361L16.9414 16.1506C16.9725 16.1237 16.9994 16.0922 17.0211 16.0571L16.5683 15.9361ZM14.7478 16.1506C14.8092 16.1937 14.899 16.2496 15.009 16.2863C15.1232 16.3283 15.2471 16.3359 15.3656 16.3083C15.4441 16.2883 15.5169 16.2503 15.5783 16.1974C15.4736 16.3128 15.3456 16.4047 15.2027 16.4669C15.0599 16.5292 14.9054 16.5604 14.7496 16.5585C14.4233 16.5585 14.1354 16.4256 13.9384 16.2148C13.9947 16.2583 14.0592 16.2901 14.1281 16.3083C14.2601 16.3413 14.3848 16.3211 14.4865 16.2863C14.5965 16.2496 14.6864 16.1946 14.7478 16.1506ZM6.01744 17.6265V18.1004H11.7136V17.6255L6.01744 17.6265ZM9.33485 18.8108V19.2847H14.0254V18.8108H9.33485Z" fill="white"/>
</g>
<defs>
<clipPath id="clip0_155_2">
<rect width="22" height="22" fill="white"/>
</clipPath>
</defs>
</svg>

