<svg width="22" height="22" viewBox="0 0 22 22" fill="none" xmlns="http://www.w3.org/2000/svg">
<path d="M2.75 1.375C1.2332 1.375 0 2.6082 0 4.125V6.875C0 8.3918 1.2332 9.625 2.75 9.625H19.25C20.7668 9.625 22 8.3918 22 6.875V4.125C22 2.6082 20.7668 1.375 19.25 1.375H2.75ZM14.7812 4.46875C15.0548 4.46875 15.3171 4.5774 15.5105 4.7708C15.7038 4.96419 15.8125 5.2265 15.8125 5.5C15.8125 5.7735 15.7038 6.03581 15.5105 6.2292C15.3171 6.4226 15.0548 6.53125 14.7812 6.53125C14.5077 6.53125 14.2454 6.4226 14.052 6.2292C13.8587 6.03581 13.75 5.7735 13.75 5.5C13.75 5.2265 13.8587 4.96419 14.052 4.7708C14.2454 4.5774 14.5077 4.46875 14.7812 4.46875ZM16.8438 5.5C16.8438 5.2265 16.9524 4.96419 17.1458 4.7708C17.3392 4.5774 17.6015 4.46875 17.875 4.46875C18.1485 4.46875 18.4108 4.5774 18.6042 4.7708C18.7976 4.96419 18.9062 5.2265 18.9062 5.5C18.9062 5.7735 18.7976 6.03581 18.6042 6.2292C18.4108 6.4226 18.1485 6.53125 17.875 6.53125C17.6015 6.53125 17.3392 6.4226 17.1458 6.2292C16.9524 6.03581 16.8438 5.7735 16.8438 5.5ZM2.75 12.375C1.2332 12.375 0 13.6082 0 15.125V17.875C0 19.3918 1.2332 20.625 2.75 20.625H19.25C20.7668 20.625 22 19.3918 22 17.875V15.125C22 13.6082 20.7668 12.375 19.25 12.375H2.75ZM14.7812 15.4688C15.0548 15.4688 15.3171 15.5774 15.5105 15.7708C15.7038 15.9642 15.8125 16.2265 15.8125 16.5C15.8125 16.7735 15.7038 17.0358 15.5105 17.2292C15.3171 17.4226 15.0548 17.5312 14.7812 17.5312C14.5077 17.5312 14.2454 17.4226 14.052 17.2292C13.8587 17.0358 13.75 16.7735 13.75 16.5C13.75 16.2265 13.8587 15.9642 14.052 15.7708C14.2454 15.5774 14.5077 15.4688 14.7812 15.4688ZM17.1875 16.5C17.1875 16.2265 17.2962 15.9642 17.4895 15.7708C17.6829 15.5774 17.9452 15.4688 18.2188 15.4688C18.4923 15.4688 18.7546 15.5774 18.948 15.7708C19.1413 15.9642 19.25 16.2265 19.25 16.5C19.25 16.7735 19.1413 17.0358 18.948 17.2292C18.7546 17.4226 18.4923 17.5312 18.2188 17.5312C17.9452 17.5312 17.6829 17.4226 17.4895 17.2292C17.2962 17.0358 17.1875 16.7735 17.1875 16.5Z" fill="white"/>
</svg>

