<svg width="16" height="16" viewBox="0 0 16 16" fill="none" xmlns="http://www.w3.org/2000/svg">
<g clip-path="url(#clip0_161_567)">
<path d="M15.4957 5.20625C15.5957 5.47813 15.5113 5.78125 15.2957 5.975L13.9426 7.20625C13.977 7.46562 13.9957 7.73125 13.9957 8C13.9957 8.26875 13.977 8.53437 13.9426 8.79375L15.2957 10.025C15.5113 10.2187 15.5957 10.5219 15.4957 10.7937C15.3582 11.1656 15.1926 11.5219 15.002 11.8656L14.8551 12.1187C14.6488 12.4625 14.4176 12.7875 14.1645 13.0937C13.9801 13.3187 13.6738 13.3937 13.3988 13.3062L11.6582 12.7531C11.2395 13.075 10.777 13.3437 10.2832 13.5469L9.89259 15.3312C9.83009 15.6156 9.61134 15.8406 9.32384 15.8875C8.89259 15.9594 8.44884 15.9969 7.99571 15.9969C7.54259 15.9969 7.09884 15.9594 6.66759 15.8875C6.38009 15.8406 6.16134 15.6156 6.09884 15.3312L5.70821 13.5469C5.21446 13.3437 4.75196 13.075 4.33321 12.7531L2.59571 13.3094C2.32071 13.3969 2.01446 13.3187 1.83009 13.0969C1.57696 12.7906 1.34571 12.4656 1.13946 12.1219L0.992586 11.8687C0.801961 11.525 0.636336 11.1687 0.498836 10.7969C0.398836 10.525 0.483211 10.2219 0.698836 10.0281L2.05196 8.79687C2.01759 8.53437 1.99884 8.26875 1.99884 8C1.99884 7.73125 2.01759 7.46562 2.05196 7.20625L0.698836 5.975C0.483211 5.78125 0.398836 5.47813 0.498836 5.20625C0.636336 4.83437 0.801961 4.47812 0.992586 4.13437L1.13946 3.88125C1.34571 3.5375 1.57696 3.2125 1.83009 2.90625C2.01446 2.68125 2.32071 2.60625 2.59571 2.69375L4.33634 3.24687C4.75509 2.925 5.21759 2.65625 5.71134 2.45312L6.10196 0.66875C6.16446 0.384375 6.38321 0.159375 6.67071 0.1125C7.10196 0.0375 7.54571 0 7.99884 0C8.45196 0 8.89571 0.0375 9.32696 0.109375C9.61446 0.15625 9.83321 0.38125 9.89571 0.665625L10.2863 2.45C10.7801 2.65312 11.2426 2.92188 11.6613 3.24375L13.402 2.69062C13.677 2.60312 13.9832 2.68125 14.1676 2.90312C14.4207 3.20937 14.652 3.53437 14.8582 3.87812L15.0051 4.13125C15.1957 4.475 15.3613 4.83125 15.4988 5.20312L15.4957 5.20625ZM7.99884 10.5C8.66188 10.5 9.29776 10.2366 9.7666 9.76777C10.2354 9.29893 10.4988 8.66304 10.4988 8C10.4988 7.33696 10.2354 6.70107 9.7666 6.23223C9.29776 5.76339 8.66188 5.5 7.99884 5.5C7.3358 5.5 6.69991 5.76339 6.23107 6.23223C5.76223 6.70107 5.49884 7.33696 5.49884 8C5.49884 8.66304 5.76223 9.29893 6.23107 9.76777C6.69991 10.2366 7.3358 10.5 7.99884 10.5Z" fill="#FF634D"/>
</g>
<defs>
<clipPath id="clip0_161_567">
<rect width="16" height="16" fill="white"/>
</clipPath>
</defs>
</svg>

