<svg width="22" height="22" viewBox="0 0 22 22" fill="none" xmlns="http://www.w3.org/2000/svg">
<path d="M0 4.125C0 2.6082 1.2332 1.375 2.75 1.375H19.25C20.7668 1.375 22 2.6082 22 4.125V17.875C22 19.3918 20.7668 20.625 19.25 20.625H2.75C1.2332 20.625 0 19.3918 0 17.875V4.125ZM2.75 4.125V6.875H5.5V4.125H2.75ZM19.25 4.125H8.25V6.875H19.25V4.125ZM2.75 9.625V12.375H5.5V9.625H2.75ZM19.25 9.625H8.25V12.375H19.25V9.625ZM2.75 15.125V17.875H5.5V15.125H2.75ZM19.25 15.125H8.25V17.875H19.25V15.125Z" fill="white" fill-opacity="0.6"/>
</svg>

