<svg width="22" height="24" viewBox="0 0 22 24" fill="none" xmlns="http://www.w3.org/2000/svg">
<g clip-path="url(#clip0_178_204)">
<path d="M10.8 12C12.4368 12 14.0065 11.3679 15.1639 10.2426C16.3212 9.11742 16.9714 7.5913 16.9714 6C16.9714 4.4087 16.3212 2.88258 15.1639 1.75736C14.0065 0.632141 12.4368 0 10.8 0C9.16323 0 7.59351 0.632141 6.43614 1.75736C5.27877 2.88258 4.62857 4.4087 4.62857 6C4.62857 7.5913 5.27877 9.11742 6.43614 10.2426C7.59351 11.3679 9.16323 12 10.8 12ZM8.59661 14.25C3.8475 14.25 0 17.9906 0 22.6078C0 23.3766 0.64125 24 1.43196 24H20.168C20.9587 24 21.6 23.3766 21.6 22.6078C21.6 17.9906 17.7525 14.25 13.0034 14.25H8.59661Z" fill="white"/>
</g>
<defs>
<clipPath id="clip0_178_204">
<rect width="21.6" height="24" fill="white"/>
</clipPath>
</defs>
</svg>

