<svg width="22" height="22" viewBox="0 0 22 22" fill="none" xmlns="http://www.w3.org/2000/svg">
<g clip-path="url(#clip0_152_1705)">
<path d="M6.72222 3.05572H15.2778V4.88905H16.5V3.05572C16.5 2.73156 16.3712 2.42069 16.142 2.19148C15.9128 1.96227 15.6019 1.8335 15.2778 1.8335H6.72222C6.39807 1.8335 6.08719 1.96227 5.85798 2.19148C5.62877 2.42069 5.5 2.73156 5.5 3.05572V7.24183H6.72222V3.05572Z" fill="white"/>
<path d="M18.3342 6.11133H10.3898V7.33355H15.2786V11.0002H16.5009V7.33355H18.3342V15.8891H13.4453V10.3891C13.4453 10.065 13.3165 9.75408 13.0873 9.52486C12.8581 9.29565 12.5472 9.16688 12.2231 9.16688H3.66753C3.34338 9.16688 3.0325 9.29565 2.80329 9.52486C2.57408 9.75408 2.44531 10.065 2.44531 10.3891V18.9447C2.44531 19.2688 2.57408 19.5797 2.80329 19.8089C3.0325 20.0381 3.34338 20.1669 3.66753 20.1669H12.2231C12.5472 20.1669 12.8581 20.0381 13.0873 19.8089C13.3165 19.5797 13.4453 19.2688 13.4453 18.9447V17.1113H18.3342C18.6584 17.1113 18.9692 16.9826 19.1984 16.7533C19.4277 16.5241 19.5564 16.2133 19.5564 15.8891V7.33355C19.5564 7.0094 19.4277 6.69852 19.1984 6.46931C18.9692 6.2401 18.6584 6.11133 18.3342 6.11133ZM3.66753 18.9447V10.3891H12.2231V15.8891H9.77865V12.2224H8.55642V15.8891C8.55642 16.2133 8.68519 16.5241 8.9144 16.7533C9.14362 16.9826 9.45449 17.1113 9.77865 17.1113H12.2231V18.9447H3.66753Z" fill="white"/>
</g>
<defs>
<clipPath id="clip0_152_1705">
<rect width="22" height="22" fill="white"/>
</clipPath>
</defs>
</svg>

