<svg width="19" height="25" viewBox="0 0 19 25" fill="none" xmlns="http://www.w3.org/2000/svg">
<path d="M16.9501 7.35327C17.5686 6.74292 17.5686 5.75171 16.9501 5.14136C16.3316 4.53101 15.3271 4.53101 14.7087 5.14136L9.4985 10.2878L4.2834 5.14624C3.66491 4.53589 2.66048 4.53589 2.04199 5.14624C1.4235 5.75659 1.4235 6.7478 2.04199 7.35815L7.2571 12.4998L2.04694 17.6462C1.42845 18.2566 1.42845 19.2478 2.04694 19.8582C2.66543 20.4685 3.66986 20.4685 4.28835 19.8582L9.4985 14.7117L14.7136 19.8533C15.3321 20.4636 16.3365 20.4636 16.955 19.8533C17.5735 19.2429 17.5735 18.2517 16.955 17.6414L11.7399 12.4998L16.9501 7.35327Z" fill="currentColor"/>
</svg>

