  <svg width="136" height="35" viewBox="0 0 136 35" fill="none" xmlns="http://www.w3.org/2000/svg">
<g clip-path="url(#clip0_178_173)">
<path d="M33.6634 0.548828H0V34.7808H33.6634V0.548828Z" fill="#FF634D"/>
<path d="M8.71094 26.8809V23.4893L17.5628 12.9498V12.8283H9.02174V8.20898H24.811V11.9288L16.6056 22.14V22.2616H25.1094V26.8809H8.71094Z" fill="#1F1F1F"/>
<path d="M37.4179 27.234C35.4204 27.234 33.6964 26.849 32.2459 26.079C30.8039 25.301 29.6932 24.1947 28.9141 22.7603C28.1432 21.3179 27.7578 19.6037 27.7578 17.6182C27.7578 15.6895 28.1474 14.0038 28.9265 12.5613C29.7056 11.1107 30.8039 9.98417 32.2211 9.18182C33.6384 8.37144 35.3085 7.96619 37.2314 7.96619C38.5908 7.96619 39.834 8.17291 40.9611 8.58618C42.0884 8.99947 43.0623 9.6113 43.8828 10.4218C44.7033 11.2322 45.3415 12.2331 45.7973 13.4244C46.2533 14.6076 46.4813 15.965 46.4813 17.4967V18.9797H29.8839V15.5274H40.8244C40.8161 14.8952 40.6628 14.332 40.3644 13.8376C40.0661 13.3434 39.6558 12.9584 39.1337 12.6829C38.6198 12.3993 38.027 12.2575 37.3558 12.2575C36.676 12.2575 36.0669 12.4072 35.5281 12.7071C34.9894 12.999 34.5625 13.4001 34.2475 13.9105C33.9326 14.4131 33.7668 14.9844 33.7504 15.6247V19.1378C33.7504 19.8996 33.9037 20.5681 34.2102 21.1435C34.517 21.7108 34.9521 22.1526 35.5157 22.4685C36.0794 22.7847 36.7507 22.9427 37.5297 22.9427C38.0685 22.9427 38.5575 22.8697 38.9968 22.7239C39.436 22.578 39.8132 22.3633 40.1282 22.0797C40.4431 21.7959 40.6793 21.4475 40.8368 21.0341L46.4191 21.1922C46.1869 22.4159 45.6772 23.4817 44.8898 24.3893C44.1107 25.2889 43.0872 25.9899 41.819 26.4923C40.5508 26.9867 39.0838 27.234 37.4179 27.234ZM55.6657 16.2324V26.8813H49.5862V8.20937H55.3673V11.6374H55.5787C56.0014 10.4947 56.7224 9.59919 57.742 8.95088C58.7614 8.29443 59.9757 7.96619 61.3847 7.96619C62.7274 7.96619 63.8918 8.26203 64.8781 8.85359C65.8728 9.43712 66.6436 10.2556 67.1907 11.3092C67.746 12.3546 68.0195 13.5784 68.0112 14.9803V26.8813H61.9316V16.1474C61.94 15.11 61.6706 14.2996 61.1235 13.7161C60.5848 13.1326 59.8347 12.8409 58.8733 12.8409C58.2351 12.8409 57.6716 12.9787 57.1824 13.2542C56.7017 13.5217 56.3288 13.9067 56.0636 14.409C55.8065 14.9114 55.674 15.5193 55.6657 16.2324ZM78.7497 27.1487C77.3408 27.1487 76.0602 26.7922 74.9081 26.079C73.756 25.3659 72.836 24.2961 72.1481 22.8697C71.4601 21.4435 71.1163 19.6727 71.1163 17.5574C71.1163 15.3612 71.4725 13.554 72.1854 12.1358C72.8981 10.7175 73.8306 9.66804 74.9827 8.98736C76.143 8.30653 77.3905 7.96619 78.7248 7.96619C79.7277 7.96619 80.5856 8.13643 81.2984 8.47678C82.0112 8.80908 82.5996 9.23857 83.0637 9.76534C83.5279 10.2921 83.8802 10.8392 84.1205 11.4064H84.245V1.98535H90.3244V26.8813H84.307V23.8544H84.1205C83.8636 24.4298 83.4989 24.9687 83.0265 25.4713C82.5541 25.9737 81.9615 26.3789 81.2487 26.6869C80.5441 26.9949 79.7111 27.1487 78.7497 27.1487ZM80.8633 22.5173C81.6009 22.5173 82.2307 22.3146 82.753 21.9094C83.2752 21.4961 83.6772 20.9167 83.9589 20.1711C84.2408 19.4255 84.3816 18.5502 84.3816 17.5454C84.3816 16.5242 84.2408 15.645 83.9589 14.9074C83.6855 14.1699 83.2834 13.6027 82.753 13.2055C82.2307 12.8084 81.6009 12.6099 80.8633 12.6099C80.109 12.6099 79.4708 12.8125 78.9486 13.2178C78.4265 13.6229 78.0287 14.1943 77.7551 14.9317C77.4899 15.6692 77.3573 16.5404 77.3573 17.5454C77.3573 18.5502 77.4941 19.4255 77.7675 20.1711C78.0411 20.9167 78.4348 21.4961 78.9486 21.9094C79.4708 22.3146 80.109 22.5173 80.8633 22.5173ZM103.083 27.234C101.077 27.234 99.3535 26.8328 97.9113 26.0304C96.4774 25.22 95.371 24.0935 94.5918 22.6509C93.821 21.2003 93.4356 19.5187 93.4356 17.6062C93.4356 15.6854 93.821 14.0038 94.5918 12.5613C95.371 11.1107 96.4774 9.98417 97.9113 9.18182C99.3535 8.37144 101.077 7.96619 103.083 7.96619C105.089 7.96619 106.809 8.37144 108.243 9.18182C109.685 9.98417 110.791 11.1107 111.562 12.5613C112.341 14.0038 112.731 15.6854 112.731 17.6062C112.731 19.5187 112.341 21.2003 111.562 22.6509C110.791 24.0935 109.685 25.22 108.243 26.0304C106.809 26.8328 105.089 27.234 103.083 27.234ZM103.121 22.7482C103.85 22.7482 104.467 22.5293 104.973 22.0917C105.479 21.6541 105.864 21.0463 106.129 20.2683C106.403 19.4904 106.539 18.5908 106.539 17.5697C106.539 16.5324 106.403 15.6247 106.129 14.8467C105.864 14.0686 105.479 13.4608 104.973 13.0232C104.467 12.5855 103.85 12.3668 103.121 12.3668C102.366 12.3668 101.728 12.5855 101.206 13.0232C100.692 13.4608 100.298 14.0686 100.025 14.8467C99.7596 15.6247 99.627 16.5324 99.627 17.5697C99.627 18.5908 99.7596 19.4904 100.025 20.2683C100.298 21.0463 100.692 21.6541 101.206 22.0917C101.728 22.5293 102.366 22.7482 103.121 22.7482ZM124.76 27.234C122.745 27.234 121.017 26.8287 119.575 26.0182C118.141 25.2078 117.039 24.0813 116.268 22.6388C115.497 21.1881 115.112 19.5107 115.112 17.6062C115.112 15.6935 115.497 14.016 116.268 12.5734C117.047 11.1228 118.154 9.99219 119.587 9.18182C121.03 8.37144 122.75 7.96619 124.746 7.96619C126.512 7.96619 128.05 8.27823 129.359 8.90231C130.677 9.52625 131.705 10.4096 132.443 11.5523C133.189 12.6869 133.583 14.02 133.624 15.5517H127.942C127.826 14.5955 127.494 13.8459 126.948 13.3029C126.408 12.7599 125.704 12.4883 124.834 12.4883C124.129 12.4883 123.511 12.6829 122.982 13.0719C122.451 13.4528 122.037 14.02 121.739 14.7737C121.449 15.5193 121.303 16.4432 121.303 17.5454C121.303 18.6475 121.449 19.5796 121.739 20.3414C122.037 21.095 122.451 21.6663 122.982 22.0553C123.511 22.4362 124.129 22.6267 124.834 22.6267C125.397 22.6267 125.894 22.5091 126.325 22.2741C126.765 22.0391 127.126 21.6947 127.407 21.2409C127.689 20.779 127.867 20.2197 127.942 19.5633H133.624C133.566 21.1032 133.172 22.4482 132.443 23.5991C131.722 24.75 130.706 25.6454 129.397 26.2857C128.096 26.9177 126.549 27.234 124.76 27.234Z" fill="#FF634D"/>
<mask id="mask0_178_173" style="mask-type:alpha" maskUnits="userSpaceOnUse" x="0" y="0" width="34" height="38">
<path d="M33.6634 0.548828H0V37.414H33.6634V0.548828Z" fill="#FF0000"/>
</mask>
<g mask="url(#mask0_178_173)">
<path d="M8.71094 26.8813V23.4897L17.5628 12.9502V12.8287H9.02174V8.20937H24.811V11.9292L16.6056 22.1404V22.262H25.1094V26.8813H8.71094ZM37.4175 27.234C35.4201 27.234 33.6961 26.849 32.2456 26.079C30.8034 25.301 29.6928 24.1947 28.9138 22.7603C28.1429 21.3179 27.7575 19.6037 27.7575 17.6182C27.7575 15.6895 28.147 14.0038 28.9262 12.5613C29.7052 11.1107 30.8034 9.98416 32.2208 9.18182C33.638 8.37144 35.3082 7.96619 37.2311 7.96619C38.5903 7.96619 39.8336 8.17289 40.9608 8.58618C42.0879 8.99946 43.062 9.6113 43.8825 10.4218C44.703 11.2322 45.3412 12.2331 45.797 13.4244C46.2529 14.6076 46.4809 15.965 46.4809 17.4967V18.9797H29.8836V15.5274H40.8241C40.8158 14.8952 40.6624 14.332 40.364 13.8376C40.0658 13.3434 39.6555 12.9584 39.1333 12.6829C38.6195 12.3993 38.0267 12.2575 37.3554 12.2575C36.6758 12.2575 36.0665 12.4072 35.5278 12.7071C34.989 12.999 34.5622 13.4001 34.2472 13.9105C33.9323 14.4131 33.7666 14.9844 33.7499 15.6247V19.1378C33.7499 19.8996 33.9033 20.5681 34.2099 21.1435C34.5167 21.7108 34.9518 22.1526 35.5154 22.4685C36.079 22.7847 36.7504 22.9427 37.5294 22.9427C38.0681 22.9427 38.5572 22.8697 38.9964 22.7239C39.4357 22.578 39.8129 22.3633 40.1279 22.0797C40.4428 21.7959 40.679 21.4475 40.8365 21.0341L46.4186 21.1922C46.1866 22.4159 45.6769 23.4817 44.8894 24.3893C44.1104 25.2889 43.0869 25.9899 41.8187 26.4923C40.5505 26.9867 39.0834 27.234 37.4175 27.234ZM55.6653 16.2324V26.8813H49.5859V8.20937H55.367V11.6374H55.5783C56.001 10.4947 56.7222 9.59918 57.7416 8.95088C58.7611 8.29442 59.9753 7.96619 61.3843 7.96619C62.727 7.96619 63.8915 8.26203 64.8778 8.85358C65.8725 9.43711 66.6433 10.2556 67.1903 11.3092C67.7456 12.3546 68.0192 13.5784 68.0108 14.9803V26.8813H61.9313V16.1474C61.9396 15.11 61.6703 14.2996 61.1233 13.7161C60.5846 13.1326 59.8344 12.8409 58.8729 12.8409C58.2346 12.8409 57.6711 12.9787 57.1821 13.2542C56.7013 13.5217 56.3284 13.9067 56.0632 14.409C55.8063 14.9114 55.6738 15.5193 55.6653 16.2324ZM78.7493 27.1487C77.3404 27.1487 76.0598 26.7922 74.9078 26.079C73.7556 25.3659 72.8357 24.2961 72.1478 22.8697C71.4599 21.4435 71.1159 19.6727 71.1159 17.5574C71.1159 15.3612 71.4721 13.554 72.185 12.1358C72.8977 10.7175 73.8302 9.66804 74.9824 8.98736C76.1426 8.30653 77.3901 7.96619 78.7245 7.96619C79.7273 7.96619 80.5852 8.13642 81.298 8.47677C82.0108 8.80908 82.5992 9.23856 83.0634 9.76534C83.5276 10.2921 83.8798 10.8392 84.1201 11.4064H84.2446V1.98535H90.324V26.8813H84.3067V23.8544H84.1201C83.8633 24.4298 83.4986 24.9687 83.0261 25.4713C82.5537 25.9737 81.9611 26.3789 81.2483 26.6869C80.5438 26.9949 79.7108 27.1487 78.7493 27.1487ZM80.8629 22.5173C81.6005 22.5173 82.2305 22.3146 82.7527 21.9094C83.2749 21.4961 83.6768 20.9167 83.9586 20.1711C84.2405 19.4255 84.3813 18.5502 84.3813 17.5454C84.3813 16.5242 84.2405 15.645 83.9586 14.9074C83.6852 14.1699 83.2831 13.6027 82.7527 13.2055C82.2305 12.8084 81.6005 12.6099 80.8629 12.6099C80.1087 12.6099 79.4705 12.8125 78.9483 13.2178C78.4261 13.6229 78.0283 14.1943 77.7549 14.9317C77.4896 15.6692 77.357 16.5404 77.357 17.5454C77.357 18.5502 77.4938 19.4255 77.7673 20.1711C78.0407 20.9167 78.4345 21.4961 78.9483 21.9094C79.4705 22.3146 80.1087 22.5173 80.8629 22.5173ZM103.083 27.234C101.077 27.234 99.3531 26.8328 97.911 26.0304C96.4771 25.22 95.3706 24.0935 94.5915 22.6509C93.8207 21.2003 93.4353 19.5187 93.4353 17.6062C93.4353 15.6854 93.8207 14.0038 94.5915 12.5613C95.3706 11.1107 96.4771 9.98416 97.911 9.18182C99.3531 8.37144 101.077 7.96619 103.083 7.96619C105.089 7.96619 106.809 8.37144 108.242 9.18182C109.685 9.98416 110.791 11.1107 111.562 12.5613C112.341 14.0038 112.731 15.6854 112.731 17.6062C112.731 19.5187 112.341 21.2003 111.562 22.6509C110.791 24.0935 109.685 25.22 108.242 26.0304C106.809 26.8328 105.089 27.234 103.083 27.234ZM103.12 22.7482C103.85 22.7482 104.467 22.5293 104.973 22.0917C105.478 21.6541 105.864 21.0463 106.129 20.2683C106.402 19.4904 106.539 18.5908 106.539 17.5697C106.539 16.5324 106.402 15.6247 106.129 14.8467C105.864 14.0686 105.478 13.4608 104.973 13.0232C104.467 12.5855 103.85 12.3668 103.12 12.3668C102.366 12.3668 101.728 12.5855 101.206 13.0232C100.692 13.4608 100.298 14.0686 100.025 14.8467C99.7593 15.6247 99.6267 16.5324 99.6267 17.5697C99.6267 18.5908 99.7593 19.4904 100.025 20.2683C100.298 21.0463 100.692 21.6541 101.206 22.0917C101.728 22.5293 102.366 22.7482 103.12 22.7482ZM124.759 27.234C122.745 27.234 121.016 26.8287 119.575 26.0182C118.141 25.2078 117.038 24.0813 116.268 22.6388C115.497 21.1881 115.111 19.5107 115.111 17.6062C115.111 15.6935 115.497 14.016 116.268 12.5734C117.047 11.1228 118.153 9.99219 119.587 9.18182C121.03 8.37144 122.75 7.96619 124.746 7.96619C126.512 7.96619 128.05 8.27822 129.359 8.90229C130.677 9.52625 131.705 10.4096 132.442 11.5523C133.188 12.6869 133.581 14.02 133.624 15.5517H127.942C127.826 14.5955 127.494 13.8459 126.947 13.3029C126.408 12.7599 125.704 12.4883 124.833 12.4883C124.129 12.4883 123.511 12.6829 122.981 13.0719C122.451 13.4528 122.036 14.02 121.737 14.7737C121.447 15.5193 121.303 16.4432 121.303 17.5454C121.303 18.6475 121.447 19.5796 121.737 20.3414C122.036 21.095 122.451 21.6663 122.981 22.0553C123.511 22.4362 124.129 22.6266 124.833 22.6266C125.397 22.6266 125.894 22.5091 126.325 22.2741C126.765 22.0391 127.126 21.6947 127.407 21.2409C127.689 20.779 127.867 20.2196 127.942 19.5633H133.624C133.566 21.1032 133.172 22.4482 132.442 23.5991C131.721 24.75 130.706 25.6454 129.397 26.2857C128.094 26.9177 126.549 27.234 124.759 27.234Z" fill="#1F1F1F"/>
</g>
<path d="M8.71094 26.8809V23.4893L17.5628 12.9498V12.8283H9.02174V8.20898H24.811V11.9288L16.6056 22.14V22.2616H25.1094V26.8809H8.71094Z" fill="#1F1F1F"/>
<path d="M37.4179 27.234C35.4204 27.234 33.6964 26.849 32.2459 26.079C30.8039 25.301 29.6932 24.1947 28.9141 22.7603C28.1432 21.3179 27.7578 19.6037 27.7578 17.6182C27.7578 15.6895 28.1474 14.0038 28.9265 12.5613C29.7056 11.1107 30.8039 9.98417 32.2211 9.18182C33.6384 8.37144 35.3085 7.96619 37.2314 7.96619C38.5908 7.96619 39.834 8.17291 40.9611 8.58618C42.0884 8.99947 43.0623 9.6113 43.8828 10.4218C44.7033 11.2322 45.3415 12.2331 45.7973 13.4244C46.2533 14.6076 46.4813 15.965 46.4813 17.4967V18.9797H29.8839V15.5274H40.8244C40.8161 14.8952 40.6628 14.332 40.3644 13.8376C40.0661 13.3434 39.6558 12.9584 39.1337 12.6829C38.6198 12.3993 38.027 12.2575 37.3558 12.2575C36.676 12.2575 36.0669 12.4072 35.5281 12.7071C34.9894 12.999 34.5625 13.4001 34.2475 13.9105C33.9326 14.4131 33.7668 14.9844 33.7504 15.6247V19.1378C33.7504 19.8996 33.9037 20.5681 34.2102 21.1435C34.517 21.7108 34.9521 22.1526 35.5157 22.4685C36.0794 22.7847 36.7507 22.9427 37.5297 22.9427C38.0685 22.9427 38.5575 22.8697 38.9968 22.7239C39.436 22.578 39.8132 22.3633 40.1282 22.0797C40.4431 21.7959 40.6793 21.4475 40.8368 21.0341L46.4191 21.1922C46.1869 22.4159 45.6772 23.4817 44.8898 24.3893C44.1107 25.2889 43.0872 25.9899 41.819 26.4923C40.5508 26.9867 39.0838 27.234 37.4179 27.234ZM55.6657 16.2324V26.8813H49.5862V8.20937H55.3673V11.6374H55.5787C56.0014 10.4947 56.7224 9.59919 57.742 8.95088C58.7614 8.29443 59.9757 7.96619 61.3847 7.96619C62.7274 7.96619 63.8918 8.26203 64.8781 8.85359C65.8728 9.43712 66.6436 10.2556 67.1907 11.3092C67.746 12.3546 68.0195 13.5784 68.0112 14.9803V26.8813H61.9316V16.1474C61.94 15.11 61.6706 14.2996 61.1235 13.7161C60.5848 13.1326 59.8347 12.8409 58.8733 12.8409C58.2351 12.8409 57.6716 12.9787 57.1824 13.2542C56.7017 13.5217 56.3288 13.9067 56.0636 14.409C55.8065 14.9114 55.674 15.5193 55.6657 16.2324ZM78.7497 27.1487C77.3408 27.1487 76.0602 26.7922 74.9081 26.079C73.756 25.3659 72.836 24.2961 72.1481 22.8697C71.4601 21.4435 71.1163 19.6727 71.1163 17.5574C71.1163 15.3612 71.4725 13.554 72.1854 12.1358C72.8981 10.7175 73.8306 9.66804 74.9827 8.98736C76.143 8.30653 77.3905 7.96619 78.7248 7.96619C79.7277 7.96619 80.5856 8.13643 81.2984 8.47678C82.0112 8.80908 82.5996 9.23857 83.0637 9.76534C83.5279 10.2921 83.8802 10.8392 84.1205 11.4064H84.245V1.98535H90.3244V26.8813H84.307V23.8544H84.1205C83.8636 24.4298 83.4989 24.9687 83.0265 25.4713C82.5541 25.9737 81.9615 26.3789 81.2487 26.6869C80.5441 26.9949 79.7111 27.1487 78.7497 27.1487ZM80.8633 22.5173C81.6009 22.5173 82.2307 22.3146 82.753 21.9094C83.2752 21.4961 83.6772 20.9167 83.9589 20.1711C84.2408 19.4255 84.3816 18.5502 84.3816 17.5454C84.3816 16.5242 84.2408 15.645 83.9589 14.9074C83.6855 14.1699 83.2834 13.6027 82.753 13.2055C82.2307 12.8084 81.6009 12.6099 80.8633 12.6099C80.109 12.6099 79.4708 12.8125 78.9486 13.2178C78.4265 13.6229 78.0287 14.1943 77.7551 14.9317C77.4899 15.6692 77.3573 16.5404 77.3573 17.5454C77.3573 18.5502 77.4941 19.4255 77.7675 20.1711C78.0411 20.9167 78.4348 21.4961 78.9486 21.9094C79.4708 22.3146 80.109 22.5173 80.8633 22.5173ZM103.083 27.234C101.077 27.234 99.3535 26.8328 97.9113 26.0304C96.4774 25.22 95.371 24.0935 94.5918 22.6509C93.821 21.2003 93.4356 19.5187 93.4356 17.6062C93.4356 15.6854 93.821 14.0038 94.5918 12.5613C95.371 11.1107 96.4774 9.98417 97.9113 9.18182C99.3535 8.37144 101.077 7.96619 103.083 7.96619C105.089 7.96619 106.809 8.37144 108.243 9.18182C109.685 9.98417 110.791 11.1107 111.562 12.5613C112.341 14.0038 112.731 15.6854 112.731 17.6062C112.731 19.5187 112.341 21.2003 111.562 22.6509C110.791 24.0935 109.685 25.22 108.243 26.0304C106.809 26.8328 105.089 27.234 103.083 27.234ZM103.121 22.7482C103.85 22.7482 104.467 22.5293 104.973 22.0917C105.479 21.6541 105.864 21.0463 106.129 20.2683C106.403 19.4904 106.539 18.5908 106.539 17.5697C106.539 16.5324 106.403 15.6247 106.129 14.8467C105.864 14.0686 105.479 13.4608 104.973 13.0232C104.467 12.5855 103.85 12.3668 103.121 12.3668C102.366 12.3668 101.728 12.5855 101.206 13.0232C100.692 13.4608 100.298 14.0686 100.025 14.8467C99.7596 15.6247 99.627 16.5324 99.627 17.5697C99.627 18.5908 99.7596 19.4904 100.025 20.2683C100.298 21.0463 100.692 21.6541 101.206 22.0917C101.728 22.5293 102.366 22.7482 103.121 22.7482ZM124.76 27.234C122.745 27.234 121.017 26.8287 119.575 26.0182C118.141 25.2078 117.039 24.0813 116.268 22.6388C115.497 21.1881 115.112 19.5107 115.112 17.6062C115.112 15.6935 115.497 14.016 116.268 12.5734C117.047 11.1228 118.154 9.99219 119.587 9.18182C121.03 8.37144 122.75 7.96619 124.746 7.96619C126.512 7.96619 128.05 8.27823 129.359 8.90231C130.677 9.52625 131.705 10.4096 132.443 11.5523C133.189 12.6869 133.583 14.02 133.624 15.5517H127.942C127.826 14.5955 127.494 13.8459 126.948 13.3029C126.408 12.7599 125.704 12.4883 124.834 12.4883C124.129 12.4883 123.511 12.6829 122.982 13.0719C122.451 13.4528 122.037 14.02 121.739 14.7737C121.449 15.5193 121.303 16.4432 121.303 17.5454C121.303 18.6475 121.449 19.5796 121.739 20.3414C122.037 21.095 122.451 21.6663 122.982 22.0553C123.511 22.4362 124.129 22.6267 124.834 22.6267C125.397 22.6267 125.894 22.5091 126.325 22.2741C126.765 22.0391 127.126 21.6947 127.407 21.2409C127.689 20.779 127.867 20.2197 127.942 19.5633H133.624C133.566 21.1032 133.172 22.4482 132.443 23.5991C131.722 24.75 130.706 25.6454 129.397 26.2857C128.096 26.9177 126.549 27.234 124.76 27.234Z" fill="#FF634D"/>
<mask id="mask1_178_173" style="mask-type:alpha" maskUnits="userSpaceOnUse" x="0" y="0" width="34" height="38">
<path d="M33.6634 0.548828H0V37.414H33.6634V0.548828Z" fill="#FF0000"/>
</mask>
<g mask="url(#mask1_178_173)">
<path d="M8.71094 26.8813V23.4897L17.5628 12.9502V12.8287H9.02174V8.20937H24.811V11.9292L16.6056 22.1404V22.262H25.1094V26.8813H8.71094ZM37.4175 27.234C35.4201 27.234 33.6961 26.849 32.2456 26.079C30.8034 25.301 29.6928 24.1947 28.9138 22.7603C28.1429 21.3179 27.7575 19.6037 27.7575 17.6182C27.7575 15.6895 28.147 14.0038 28.9262 12.5613C29.7052 11.1107 30.8034 9.98416 32.2208 9.18182C33.638 8.37144 35.3082 7.96619 37.2311 7.96619C38.5903 7.96619 39.8336 8.17289 40.9608 8.58618C42.0879 8.99946 43.062 9.6113 43.8825 10.4218C44.703 11.2322 45.3412 12.2331 45.797 13.4244C46.2529 14.6076 46.4809 15.965 46.4809 17.4967V18.9797H29.8836V15.5274H40.8241C40.8158 14.8952 40.6624 14.332 40.364 13.8376C40.0658 13.3434 39.6555 12.9584 39.1333 12.6829C38.6195 12.3993 38.0267 12.2575 37.3554 12.2575C36.6758 12.2575 36.0665 12.4072 35.5278 12.7071C34.989 12.999 34.5622 13.4001 34.2472 13.9105C33.9323 14.4131 33.7666 14.9844 33.7499 15.6247V19.1378C33.7499 19.8996 33.9033 20.5681 34.2099 21.1435C34.5167 21.7108 34.9518 22.1526 35.5154 22.4685C36.079 22.7847 36.7504 22.9427 37.5294 22.9427C38.0681 22.9427 38.5572 22.8697 38.9964 22.7239C39.4357 22.578 39.8129 22.3633 40.1279 22.0797C40.4428 21.7959 40.679 21.4475 40.8365 21.0341L46.4186 21.1922C46.1866 22.4159 45.6769 23.4817 44.8894 24.3893C44.1104 25.2889 43.0869 25.9899 41.8187 26.4923C40.5505 26.9867 39.0834 27.234 37.4175 27.234ZM55.6653 16.2324V26.8813H49.5859V8.20937H55.367V11.6374H55.5783C56.001 10.4947 56.7222 9.59918 57.7416 8.95088C58.7611 8.29442 59.9753 7.96619 61.3843 7.96619C62.727 7.96619 63.8915 8.26203 64.8778 8.85358C65.8725 9.43711 66.6433 10.2556 67.1903 11.3092C67.7456 12.3546 68.0192 13.5784 68.0108 14.9803V26.8813H61.9313V16.1474C61.9396 15.11 61.6703 14.2996 61.1233 13.7161C60.5846 13.1326 59.8344 12.8409 58.8729 12.8409C58.2346 12.8409 57.6711 12.9787 57.1821 13.2542C56.7013 13.5217 56.3284 13.9067 56.0632 14.409C55.8063 14.9114 55.6738 15.5193 55.6653 16.2324ZM78.7493 27.1487C77.3404 27.1487 76.0598 26.7922 74.9078 26.079C73.7556 25.3659 72.8357 24.2961 72.1478 22.8697C71.4599 21.4435 71.1159 19.6727 71.1159 17.5574C71.1159 15.3612 71.4721 13.554 72.185 12.1358C72.8977 10.7175 73.8302 9.66804 74.9824 8.98736C76.1426 8.30653 77.3901 7.96619 78.7245 7.96619C79.7273 7.96619 80.5852 8.13642 81.298 8.47677C82.0108 8.80908 82.5992 9.23856 83.0634 9.76534C83.5276 10.2921 83.8798 10.8392 84.1201 11.4064H84.2446V1.98535H90.324V26.8813H84.3067V23.8544H84.1201C83.8633 24.4298 83.4986 24.9687 83.0261 25.4713C82.5537 25.9737 81.9611 26.3789 81.2483 26.6869C80.5438 26.9949 79.7108 27.1487 78.7493 27.1487ZM80.8629 22.5173C81.6005 22.5173 82.2305 22.3146 82.7527 21.9094C83.2749 21.4961 83.6768 20.9167 83.9586 20.1711C84.2405 19.4255 84.3813 18.5502 84.3813 17.5454C84.3813 16.5242 84.2405 15.645 83.9586 14.9074C83.6852 14.1699 83.2831 13.6027 82.7527 13.2055C82.2305 12.8084 81.6005 12.6099 80.8629 12.6099C80.1087 12.6099 79.4705 12.8125 78.9483 13.2178C78.4261 13.6229 78.0283 14.1943 77.7549 14.9317C77.4896 15.6692 77.357 16.5404 77.357 17.5454C77.357 18.5502 77.4938 19.4255 77.7673 20.1711C78.0407 20.9167 78.4345 21.4961 78.9483 21.9094C79.4705 22.3146 80.1087 22.5173 80.8629 22.5173ZM103.083 27.234C101.077 27.234 99.3531 26.8328 97.911 26.0304C96.4771 25.22 95.3706 24.0935 94.5915 22.6509C93.8207 21.2003 93.4353 19.5187 93.4353 17.6062C93.4353 15.6854 93.8207 14.0038 94.5915 12.5613C95.3706 11.1107 96.4771 9.98416 97.911 9.18182C99.3531 8.37144 101.077 7.96619 103.083 7.96619C105.089 7.96619 106.809 8.37144 108.242 9.18182C109.685 9.98416 110.791 11.1107 111.562 12.5613C112.341 14.0038 112.731 15.6854 112.731 17.6062C112.731 19.5187 112.341 21.2003 111.562 22.6509C110.791 24.0935 109.685 25.22 108.242 26.0304C106.809 26.8328 105.089 27.234 103.083 27.234ZM103.12 22.7482C103.85 22.7482 104.467 22.5293 104.973 22.0917C105.478 21.6541 105.864 21.0463 106.129 20.2683C106.402 19.4904 106.539 18.5908 106.539 17.5697C106.539 16.5324 106.402 15.6247 106.129 14.8467C105.864 14.0686 105.478 13.4608 104.973 13.0232C104.467 12.5855 103.85 12.3668 103.12 12.3668C102.366 12.3668 101.728 12.5855 101.206 13.0232C100.692 13.4608 100.298 14.0686 100.025 14.8467C99.7593 15.6247 99.6267 16.5324 99.6267 17.5697C99.6267 18.5908 99.7593 19.4904 100.025 20.2683C100.298 21.0463 100.692 21.6541 101.206 22.0917C101.728 22.5293 102.366 22.7482 103.12 22.7482ZM124.759 27.234C122.745 27.234 121.016 26.8287 119.575 26.0182C118.141 25.2078 117.038 24.0813 116.268 22.6388C115.497 21.1881 115.111 19.5107 115.111 17.6062C115.111 15.6935 115.497 14.016 116.268 12.5734C117.047 11.1228 118.153 9.99219 119.587 9.18182C121.03 8.37144 122.75 7.96619 124.746 7.96619C126.512 7.96619 128.05 8.27822 129.359 8.90229C130.677 9.52625 131.705 10.4096 132.442 11.5523C133.188 12.6869 133.581 14.02 133.624 15.5517H127.942C127.826 14.5955 127.494 13.8459 126.947 13.3029C126.408 12.7599 125.704 12.4883 124.833 12.4883C124.129 12.4883 123.511 12.6829 122.981 13.0719C122.451 13.4528 122.036 14.02 121.737 14.7737C121.447 15.5193 121.303 16.4432 121.303 17.5454C121.303 18.6475 121.447 19.5796 121.737 20.3414C122.036 21.095 122.451 21.6663 122.981 22.0553C123.511 22.4362 124.129 22.6266 124.833 22.6266C125.397 22.6266 125.894 22.5091 126.325 22.2741C126.765 22.0391 127.126 21.6947 127.407 21.2409C127.689 20.779 127.867 20.2196 127.942 19.5633H133.624C133.566 21.1032 133.172 22.4482 132.442 23.5991C131.721 24.75 130.706 25.6454 129.397 26.2857C128.094 26.9177 126.549 27.234 124.759 27.234Z" fill="#1F1F1F"/>
</g>
</g>
<defs>
<clipPath id="clip0_178_173">
<rect width="136" height="35" fill="white"/>
</clipPath>
</defs>
</svg>

